<svg xmlns="http://www.w3.org/2000/svg" viewBox="0 0 1024 1024"><path d="M338.169 286.988c-4.041.961-8.924 5.365-10.792 9.73-2.179 5.091-2.007 194.882.193 214.08 12.069 105.292 76.396 191.595 197.646 265.167l13.716 8.322 11.284-6.305c104.904-58.614 173.459-139.829 196.325-232.58 7.562-30.674 7.451-28.53 7.438-143.902l-.012-103-2.234-3.944c-1.229-2.17-3.809-4.87-5.734-6-3.497-2.055-3.625-2.056-203.999-2.209-110.275-.083-201.999.205-203.831.641M369 377.858v53.857l10.75.592c5.913.326 19.525.261 30.25-.145 19.458-.735 19.516-.744 27-4.199 36.091-16.663 45.847-59.923 19.523-86.573-14.038-14.211-25.674-17.39-63.654-17.39H369v53.858m127-16.547v37.372l11.25-4.365c14.878-5.772 14.201-5.275 14.556-10.69l.305-4.667 21.695.27 21.694.269.5 4.777.5 4.778 11.914 5.475c6.553 3.012 12.006 5.362 12.12 5.223.113-.139.377-17.128.586-37.753l.38-37.5-12.75-.28-12.75-.28v30.098l-22.08-.269-22.079-.269-.171-14.5-.17-14.5-12.75-.28-12.75-.28v37.371m121 3.954v41.265l12.264 12.235C636.01 425.494 641.762 431 642.047 431c.285 0 .376-3.038.202-6.75s.037-11.85.468-18.084l.783-11.334L661 413.34l17.5 18.508 17.942.076 17.943.076-10.476-10.75c-14.994-15.386-39.359-41.275-39.689-42.17-.321-.87 14.444-16.715 35.988-38.62C708.344 332.187 715 325.1 715 324.71c0-.391-7.816-.71-17.369-.71h-17.368l-18.382 19.385c-10.109 10.662-18.718 19.185-19.131 18.941-.413-.244-.75-8.967-.75-19.385V324h-25v41.265M395.234 378.16l.266 28.34 11.5.295c13.648.35 18.791-.721 25.5-5.311 18.012-12.323 17.229-37.318-1.5-47.882-5.382-3.035-5.828-3.109-20.766-3.442l-15.265-.34.265 28.34M527 414.637c-.825.264-4.425 1.41-8 2.548-21.899 6.967-38.214 24.548-43.444 46.815-2.554 10.876-3.474 10.099 11.569 9.779l13.126-.279 2.247-6.675c6.188-18.385 17.391-26.347 37.002-26.297 20.697.054 34.935 10.395 39.543 28.722l1.194 4.75h26.787l-.569-4.25c-3.471-25.948-22.718-47.04-49.078-53.782-7.271-1.859-26.136-2.686-30.377-1.331m-66 85.538c-5.487 1.559-9.639 5.319-11.661 10.558-1.709 4.43-1.839 8.836-1.839 62.267 0 62.327.068 63.299 4.791 68.678 6.738 7.675 1.927 7.278 88.209 7.278 84.745 0 81.39.234 87.202-6.088 5.357-5.827 5.298-5.047 5.294-70.086-.003-57.584-.089-60.422-1.915-63.416-2.528-4.147-7.645-7.914-12.581-9.262-5.251-1.435-152.436-1.368-157.5.071m71.759 34.188c-18.017 6.718-20.346 32.559-3.71 41.162 2.555 1.321 2.689 1.693 1.871 5.199l-4.4 18.866c-1.936 8.299-3.52 15.611-3.52 16.25 0 1.388 33.558 1.684 34.412.302.292-.471.089-2.384-.45-4.25-1.001-3.466-7.962-34.371-7.962-35.351 0-.298.52-.541 1.156-.541 5.225 0 12.817-12.002 12.834-20.29.031-14.894-16.407-26.501-30.231-21.347" fill-rule="evenodd"/></svg>