<?xml version="1.0" standalone="no"?>
<!DOCTYPE svg PUBLIC "-//W3C//DTD SVG 20010904//EN"
 "http://www.w3.org/TR/2001/REC-SVG-20010904/DTD/svg10.dtd">
<svg version="1.0" xmlns="http://www.w3.org/2000/svg"
 width="547.000000pt" height="547.000000pt" viewBox="0 0 547.000000 547.000000"
 preserveAspectRatio="xMidYMid meet">

<g transform="translate(0.000000,547.000000) scale(0.100000,-0.100000)"
fill="#000000" stroke="none">
<path d="M720 5168 c-30 -15 -53 -37 -67 -63 l-23 -40 0 -1010 c0 -1172 0
-1169 89 -1520 144 -564 481 -1104 976 -1566 230 -214 667 -532 983 -714 l82
-48 53 28 c282 151 683 426 902 618 591 519 955 1079 1116 1718 81 323 79 280
79 1457 0 753 -3 1049 -11 1065 -6 12 -21 33 -33 45 -49 55 73 52 -2095 52
l-2007 0 -44 -22z m949 -384 c136 -31 279 -134 346 -248 65 -111 84 -283 45
-407 -55 -176 -192 -316 -369 -376 -62 -21 -83 -22 -348 -23 l-283 0 0 534 c0
344 4 536 10 538 5 2 128 2 272 0 187 -2 281 -7 327 -18z m911 -124 l5 -145
223 -3 222 -2 0 143 c0 79 2 146 4 148 2 2 59 3 125 1 l121 -3 0 -374 0 -374
-67 31 c-38 17 -93 41 -123 53 -54 23 -55 24 -60 72 l-5 48 -217 3 -217 2 -3
-47 c-3 -47 -4 -48 -53 -67 -27 -11 -85 -34 -127 -52 l-78 -32 0 375 0 375
123 -3 122 -4 5 -145z m1210 -39 c0 -105 4 -192 8 -195 4 -2 88 80 186 184
114 121 187 190 203 193 13 2 94 2 180 -1 l155 -5 -37 -31 c-59 -49 -477 -495
-473 -506 4 -12 151 -170 340 -365 l155 -160 -170 -3 -171 -2 -58 57 c-31 31
-113 116 -180 189 -68 73 -126 130 -130 128 -5 -3 -8 -87 -8 -187 l0 -182
-125 125 -125 125 0 412 0 413 125 0 125 0 0 -189z m-871 -726 c132 -27 244
-90 341 -189 97 -98 163 -233 171 -347 l4 -44 -132 -3 -131 -3 -7 38 c-20 109
-106 216 -214 266 -128 61 -320 46 -422 -31 -68 -51 -127 -142 -144 -220 -4
-18 -15 -37 -25 -42 -10 -6 -71 -10 -134 -10 -90 0 -116 3 -116 13 0 29 39
166 61 213 36 78 105 169 167 220 66 54 194 118 278 138 78 19 216 19 303 1z
m681 -865 c21 -11 51 -36 67 -57 l28 -36 0 -621 0 -621 -30 -44 c-16 -24 -48
-54 -70 -65 -39 -21 -52 -21 -805 -24 -533 -2 -776 0 -803 8 -48 14 -104 63
-122 108 -13 29 -15 133 -15 637 l0 602 23 43 c16 30 37 51 67 67 l43 23 789
0 c768 0 790 -1 828 -20z"/>
<path d="M1325 4547 c-3 -7 -4 -136 -3 -287 l3 -275 145 0 c122 0 150 3 180
19 63 33 115 83 145 137 26 47 30 64 30 129 0 58 -6 85 -23 117 -68 130 -163
172 -385 173 -62 0 -89 -4 -92 -13z"/>
<path d="M2675 2701 c-55 -25 -101 -81 -120 -146 -27 -91 0 -172 81 -244 l47
-41 -38 -167 c-21 -93 -40 -180 -43 -195 l-4 -28 170 0 c98 0 173 4 177 10 3
5 -5 51 -18 102 -43 165 -63 291 -48 296 28 9 85 69 102 107 25 55 24 138 -2
192 -54 111 -195 164 -304 114z"/>
</g>
</svg>
